<svg xmlns="http://www.w3.org/2000/svg" viewBox="0 0 64 64" width="64" height="64" role="img" aria-label="Tomato logo favicon">
  <defs>
    <linearGradient id="tomatoFill" x1="0" y1="0" x2="1" y2="1">
      <stop offset="0" stop-color="#ff5a45"/>
      <stop offset="1" stop-color="#c92a1c"/>
    </linearGradient>
    <linearGradient id="leafFill" x1="0" y1="0" x2="1" y2="1">
      <stop offset="0" stop-color="#2fbf65"/>
      <stop offset="1" stop-color="#167a42"/>
    </linearGradient>
  </defs>

  <circle cx="32" cy="36" r="24" fill="url(#tomatoFill)"/>

  <path d="M20 20c3-1 6-4 7-8h2c1 4 4 7 7 8c4-1 7-4 8-8h3c-1 7-7 13-15 13S18 19 17 12h3c1 4 4 7 8 8Z" fill="url(#leafFill)"/>

  <path d="M38 14c-2 2-5 3-8 3" stroke="#167a42" stroke-width="3" stroke-linecap="round" fill="none"/>

  <ellipse cx="24" cy="30" rx="7" ry="5" fill="#ffffff" opacity="0.22"/>
  <circle cx="32" cy="36" r="24" fill="none" stroke="#9f1f16" stroke-width="2" opacity="0.45"/>
</svg>