<svg xmlns="http://www.w3.org/2000/svg" viewBox="0 0 64 64" width="64" height="64" role="img" aria-label="Tomato logo favicon">
  <defs>
    <linearGradient id="tomatoFill" x1="0" y1="0" x2="1" y2="1">
      <stop offset="0" stop-color="#ff5a45"/>
      <stop offset="1" stop-color="#c92a1c"/>
    </linearGradient>
    <linearGradient id="leafFill" x1="0" y1="0" x2="1" y2="1">
      <stop offset="0" stop-color="#2fbf65"/>
      <stop offset="1" stop-color="#167a42"/>
    </linearGradient>
  </defs>

  <circle cx="32" cy="36" r="26" fill="url(#tomatoFill)"/>
  <path d="M17 19c4-1 7-4 9-9h3c1 4 3 8 3 8s2-4 3-8h3c2 5 5 8 9 9l4-12h2l-4 18c-4 1-9 2-17 2s-13-1-17-2L15 7h2l4 12Z" fill="url(#leafFill)"/>
  <path d="M36 11c-1 3-4 5-8 5" stroke="#167a42" stroke-width="2.7" stroke-linecap="round" fill="none"/>
  <ellipse cx="22" cy="30" rx="9" ry="5" fill="#ffffff" opacity="0.22"/>
  <circle cx="32" cy="36" r="26" fill="none" stroke="#9f1f16" stroke-width="1.8" opacity="0.45"/>
</svg>